<?xml version="1.0" encoding="UTF-8"?>
<!-- Source: GitHub official Brand Toolkit, https://brand.github.com/foundations/logo -->
<svg xmlns="http://www.w3.org/2000/svg" width="98" height="96" viewBox="0 0 98 96">
  <path fill="#181717" fill-rule="evenodd" clip-rule="evenodd" d="M48.854,0C21.839,0,0,21.839,0,48.854c0,21.593,13.993,39.879,33.405,46.391,2.427,.49,3.315-1.052,3.315-2.333,0-1.157-.039-5.012-.039-9.108-13.59,2.949-16.445-5.832-16.445-5.832-2.22-5.638-5.421-7.139-5.421-7.139-4.434-3.03,.335-2.968,.335-2.968,4.9,.346,7.482,5.032,7.482,5.032,4.355,7.462,11.423,5.304,14.205,4.058,.44-3.154,1.704-5.304,3.1-6.524-10.847-1.234-22.247-5.421-22.247-24.132,0-5.333,1.905-9.691,5.032-13.102-.507-1.234-2.18-6.207,.478-12.927,0,0,4.104-1.313,13.449,5.006,3.9-1.084,8.083-1.628,12.25-1.648,4.151,.02,8.335,.562,12.25,1.648,9.34-6.319,13.432-5.006,13.432-5.006,2.667,6.72,.99,11.693,.487,12.927,3.132,3.411,5.025,7.769,5.025,13.102,0,18.756-11.416,22.918-22.294,24.093,1.752,1.512,3.315,4.491,3.315,9.049,0,6.524-.06,11.789-.06,13.383,0,1.293,.875,2.854,3.354,2.327,19.394-6.435,33.375-24.709,33.375-46.29C97.707,21.839,75.868,0,48.854,0Z"/>
</svg>
